HIERARCHY
ROOT Hips
{
  OFFSET -125.086 92.215 135.881
  CHANNELS 6 Xposition Yposition Zposition Zrotation Xrotation Yrotation
  JOINT LeftUpLeg
  {
    OFFSET 8.64259 1.95398 -2.38835
    CHANNELS 3 Zrotation Xrotation Yrotation
    JOINT LeftLeg
    {
      OFFSET 43.7702 0 0
      CHANNELS 3 Zrotation Xrotation Yrotation
      JOINT LeftFoot
      {
        OFFSET 40.6238 0 0
        CHANNELS 3 Zrotation Xrotation Yrotation
        JOINT LeftToeBase
        {
          OFFSET 12.7242 0 0
          CHANNELS 3 Zrotation Xrotation Yrotation
          End Site
          {
            OFFSET 0 0 0
          }
        }
      }
    }
  }
  JOINT RightUpLeg
  {
    OFFSET -8.2249 1.95398 -2.59336
    CHANNELS 3 Zrotation Xrotation Yrotation
    JOINT RightLeg
    {
      OFFSET 43.5653 0 0
      CHANNELS 3 Zrotation Xrotation Yrotation
      JOINT RightFoot
      {
        OFFSET 40.6238 0 0
        CHANNELS 3 Zrotation Xrotation Yrotation
        JOINT RightToeBase
        {
          OFFSET 12.7242 0 0
          CHANNELS 3 Zrotation Xrotation Yrotation
          End Site
          {
            OFFSET 0 0 0
          }
        }
      }
    }
  }
  JOINT Spine
  {
    OFFSET 0.165834 0.87714 6.61349
    CHANNELS 3 Zrotation Xrotation Yrotation
    JOINT Spine1
    {
      OFFSET 7.38963 1.71661e-005 0
      CHANNELS 3 Zrotation Xrotation Yrotation
      JOINT Spine2
      {
        OFFSET 11.9445 1.14441e-005 0
        CHANNELS 3 Zrotation Xrotation Yrotation
        JOINT Spine3
        {
          OFFSET 14.7254 4.19617e-005 0
          CHANNELS 3 Zrotation Xrotation Yrotation
          JOINT Spine4
          {
            OFFSET 10.9679 0 0
            CHANNELS 3 Zrotation Xrotation Yrotation
            JOINT RightShoulder
            {
              OFFSET 2.46616 -1.6653 3.69651
              CHANNELS 3 Zrotation Xrotation Yrotation
              JOINT RightArm
              {
                OFFSET 13.0012 0 0
                CHANNELS 3 Zrotation Xrotation Yrotation
                JOINT RightForeArm
                {
                  OFFSET 28.7848 1.52588e-005 0
                  CHANNELS 3 Zrotation Xrotation Yrotation
                  JOINT RightHand
                  {
                    OFFSET 26.5688 1.52588e-005 0
                    CHANNELS 3 Zrotation Xrotation Yrotation
                    End Site
                    {
                      OFFSET 0 0 0
                    }
                  }
                }
              }
            }
            JOINT LeftShoulder
            {
              OFFSET 2.38034 -1.29275 -3.7523
              CHANNELS 3 Zrotation Xrotation Yrotation
              JOINT LeftArm
              {
                OFFSET 16.3182 6.10352e-005 0
                CHANNELS 3 Zrotation Xrotation Yrotation
                JOINT LeftForeArm
                {
                  OFFSET 27.0901 0 0
                  CHANNELS 3 Zrotation Xrotation Yrotation
                  JOINT LeftHand
                  {
                    OFFSET 24.5451 1.52588e-005 0
                    CHANNELS 3 Zrotation Xrotation Yrotation
                    End Site
                    {
                      OFFSET 0 0 0
                    }
                  }
                }
              }
            }
            JOINT Neck
            {
              OFFSET 5.0226 -0.0266342 0
              CHANNELS 3 Zrotation Xrotation Yrotation
              JOINT Head
              {
                OFFSET 6.69363 2.86102e-005 0
                CHANNELS 3 Zrotation Xrotation Yrotation
                End Site
                {
                  OFFSET 0 0 0
                }
              }
            }
          }
        }
      }
    }
  }
}
MOTION
Frames:	10
Frame Time:	0.0416667
76.5398 86.5446 93.2708 92.0216 -40.3551 98.8848 -177.401 22.2346 95.6865 -126.354 4.22097 3.3188 45.8889 0.62574 10.5861 55.3733 -1.82992 3.69926 169.804 29.4433 101.3 -58.7235 -14.7775 6.2575 70.7173 -6.63315 2.95638 38.1565 -1.39056 -4.81137 -0.182062 8.33869 -91.7068 10.1682 -1.14092 -3.29265 -1.50632 -1.28466 -3.23933 -24.0082 -0.0992912 -3.4831 -3.99552 -0.0992774 -3.4831 110.233 -51.2093 -69.7917 18.5383 -17.4364 1.39817 -3.85563 -6.20375 -57.304 -15.7131 -0.423971 -2.09799 -74.2247 -49.4522 102.409 -16.3516 8.16816 -8.61964 8.02362 17.1078 -50.9141 14.0041 -1.38785 -13.3678 29.9643 0.866414 -12.1172 -27.7217 1.78303 18.5637 
99.9951 89.7399 116.263 92.4364 -44.5139 94.0007 -178.888 41.2064 87.3326 -101.66 -3.71117 3.70784 52.009 4.14313 11.2113 54.6009 -1.36666 7.13273 174.692 3.71259 92.1152 -47.5703 -15.8672 1.67228 67.3379 -3.77567 7.78299 54.1537 -4.3493 -1.94815 0.647896 8.08346 -90.8568 10.7147 0.895093 -1.80017 -0.957252 0.81502 -1.83782 -23.4879 1.3947 -1.44805 -3.47521 1.39472 -1.44804 108.617 -48.9497 -71.9781 15.8863 -24.1587 -8.24943 -3.52962 0.0947726 -72.1223 -12.9182 -0.0763869 -4.70215 -74.2721 -48.6226 102.384 -17.1685 6.2901 3.51842 3.19402 30.8545 -33.8265 15.8408 -1.37188 -12.346 23.5812 -0.440066 -9.6605 -25.5131 0.520283 12.5949 
123.458 95.1839 139.842 89.3161 -48.2609 90.7722 178.297 41.0416 89.9537 -48.1691 9.13389 2.86791 47.6494 -2.07406 7.05545 52.0802 -2.00985 0.129413 176.077 -16.3377 91.5515 -35.3108 -16.0873 -2.81164 41.8023 7.00233 19.5423 42.4994 -2.17993 -6.79765 1.37009 7.30307 -90.2868 12.2751 2.5873 -0.856781 0.606376 2.54707 -0.96989 -21.9492 2.72506 -0.03903 -1.93658 2.72505 -0.0390348 108.98 -48.1287 -71.2948 16.8862 -31.7676 -2.92699 -7.84361 5.65985 -84.3197 -11.6635 0.274538 -8.06827 -76.7097 -44.7958 98.6968 -16.7761 8.03861 21.2666 2.86761 33.8515 -35.763 14.1804 -1.33567 -12.9131 11.6466 -1.0767 -3.4366 -20.3398 -0.367327 0.878198 
145.142 95.2089 161.807 96.0754 -51.4874 97.5547 -177.857 29.1509 91.7913 -10.7463 7.76355 0.374154 33.7918 -10.426 -2.53962 59.1512 -2.85198 -1.68596 179.207 -14.6837 90.4558 -76.6128 -17.3983 -5.50911 42.189 6.13879 12.123 42.9359 -2.25896 -0.19096 1.50861 7.7543 -90.2396 11.3775 2.89027 -0.769919 -0.290497 2.85357 -0.896476 -22.852 2.98795 0.135122 -2.83935 2.98792 0.13511 108.687 -47.5302 -71.6803 19.8312 -34.1279 3.49229 -11.1548 5.24875 -86.4674 -12.11 0.157373 -6.8625 -77.4485 -42.6835 97.5186 -20.2784 7.14917 29.6061 7.12486 30.3432 -42.7461 12.4494 -1.27109 -13.4297 10.3564 -0.352587 -3.56725 -18.0977 0.23295 1.521 
166.559 90.1791 183.396 102.387 -45.2819 99.8878 -175.305 26.1545 84.676 -40.2748 21.187 -0.75931 53.7937 0.840095 18.4572 35.6811 -0.467299 -2.22315 174.179 1.08579 88.1892 -114.209 -11.0985 -4.05544 46.7221 3.24936 11.8187 32.9542 0.139605 -12.7108 0.543342 8.50753 -89.7346 9.85667 1.20338 0.429697 -1.81377 1.22115 0.376312 -24.3518 1.01861 0.771519 -4.33913 1.01862 0.771523 110.854 -50.5933 -68.7419 23.9699 -26.8986 13.088 -11.3504 -0.456074 -74.9015 -15.1174 -0.0909548 -4.59122 -75.6483 -43.8918 100.455 -15.0153 6.23399 10.7122 2.66004 23.0141 -38.494 12.3936 -1.2289 -13.1385 23.8599 1.64833 -3.23268 -32.1293 4.10805 -5.4338 
186.545 86.2473 204.02 102.659 -38.6902 94.1845 -177.48 12.7622 76.0927 -61.6227 23.3974 1.63546 67.7763 13.9607 25.6316 54.714 -1.39576 7.68799 175.251 31.8316 85.4947 -117.666 -12.9182 -3.72189 42.3631 5.36599 11.3356 47.0271 -3.34582 -6.90743 -0.71263 8.6919 -88.923 9.48746 -0.935291 2.24328 -2.18555 -0.835712 2.28223 -24.7097 -1.56625 1.8587 -4.69708 -1.56625 1.85869 112.705 -52.9921 -66.3623 23.0143 -18.8941 15.8201 -10.3919 -15.0863 -53.3355 -15.8952 -0.615798 -0.708812 -74.4871 -46.1385 102.209 -15.6286 -1.93235 -18.5231 8.80855 23.7291 -36.8265 17.3729 -1.68317 -13.4158 31.4043 2.20719 -0.872031 -38.5251 5.81997 -10.6993 
211.43 91.7981 226.464 111.659 -33.7482 114.771 -163.855 -6.56285 110.425 -53.8 28.407 13.1262 61.4409 3.63651 8.33931 59.1435 -0.214166 12.1282 168.473 24.096 107.322 -68.3686 -11.4723 1.45269 48.9536 2.83405 9.93679 52.3181 -4.01591 -2.79095 -1.17559 9.22751 -90.7334 8.53006 -2.6677 -1.49398 -3.13672 -2.73096 -1.37508 -25.696 -2.09436 -2.2266 -5.68335 -2.09437 -2.22661 106.808 -50.1843 -75.0182 25.3702 -13.5695 26.2884 -12.4022 -31.7828 -39.7618 -10.0784 -0.268717 -2.23016 -74.5462 -46.3272 102.094 -15.252 4.53524 -23.959 7.84189 7.13419 -56.2314 19.1883 -2.94545 -19.5766 11.3027 3.45308 12.6935 -16.8708 2.78085 -20.9362 
236.036 93.4449 247.284 120.641 -25.1008 129.918 -146.873 -31.9472 130.636 -53.1084 22.235 16.3252 46.0918 -4.74108 -1.86071 92.5958 -9.32293 -5.58057 179.166 4.15528 103.941 -13.5231 -1.98172 4.99064 34.0639 8.359 18.9449 64.663 -8.43656 3.63892 -1.61402 10.3655 -91.6416 6.06723 -3.91651 -3.08619 -5.60119 -4.04849 -2.9108 -28.1332 -2.80877 -4.11987 -8.12052 -2.80877 -4.11987 98.5171 -49.2995 -87.8828 27.3603 -2.4107 35.851 -12.0651 -34.6513 -32.7803 -7.33503 -0.138935 -3.14744 -72.6839 -44.3936 105.287 -2.76134 10.1638 -19.6946 7.00487 -0.0971063 -90.1572 11.7069 -1.84702 -17.8353 23.7876 8.04131 20.4909 -30.8321 8.52622 -32.0552 
253.25 85.7926 263.995 124.811 -24.2031 129.71 -145.894 -43.8968 138.701 -61.4634 8.92223 8.72503 39.6105 -2.23896 -12.4058 125.337 -28.6745 -21.2227 177.071 4.36899 102.602 -8.40279 2.5064 5.95251 52.7273 0.426707 24.2379 -114.405 24.8792 11.4792 -2.73485 10.6725 -91.1435 5.46668 -5.93974 -2.11069 -6.19197 -6.02685 -1.84642 -28.797 -5.03067 -3.80122 -8.78431 -5.03066 -3.80122 86.7438 -48.1472 -106.582 25.4245 3.54699 48.1087 -23.4473 -33.4721 -44.3248 -1.62825 -0.0396352 -3.71523 -62.135 -54.0136 119.54 9.12931 2.18521 -2.69334 2.97526 -4.10878 -101.683 17.2064 -1.79583 -14.2301 40.3018 21.1068 29.4154 -50.9104 25.2306 -45.1548 
267.317 77.204 277.156 129.219 -22.2666 134.733 -125.104 -56.0049 164.416 -57.4148 -40.7443 5.88375 29.6437 -0.678349 -40.6169 116.306 -48.9818 -51.5141 170.076 4.31675 110.512 -5.22683 -38.978 2.13925 58.8883 4.02549 -11.0574 23.3707 -35.9073 153.093 -3.2251 11.3505 -91.4948 4.06239 -7.04677 -2.87422 -7.5919 -7.16637 -2.56003 -30.2152 -5.85729 -4.8632 -10.2026 -5.85728 -4.8632 78.3726 -45.8783 -120.406 24.6847 4.93201 65.9055 -64.7205 -16.6575 -79.7745 4.76719 -0.385459 -13.7166 -20.8282 -68.0121 165.199 21.8203 -5.79575 5.15157 2.40147 1.7574 -69.6041 14.9741 -1.33242 -12.4314 59.7179 30.0694 27.38 -75.4527 37.856 -41.0253 
